#!OML:ASF I:\Actors\actors\Patient Classification 2\Patient 1\Session 1\actor1.ASF
:FULLY-SPECIFIED
:DEGREES
814
root -0.434574 18.6275 6.06822 -0.504017 -21.2024 -0.859089
lowerback 5.54481 -4.87719 -0.164807
upperback -1.64186 -6.47597 1.06907
thorax -4.65511 -3.19054 1.80392
lowerneck 9.72035 -23.5216 -16.8418
upperneck -1.24293 -33.9417 21.9354
head 4.7069 -17.3264 6.70512
rclavicle 6.47914e-014 -3.97569e-016
rhumerus 13.532 14.0387 -70.0699
rradius 88.5183
rwrist -4.82845
rhand -23.8496 -40.5387
rfingers 7.12502
rthumb 2.62265 -70.5024
lclavicle 6.47914e-014 -3.97569e-016
lhumerus -61.8543 -7.01173 94.654
lradius 68.4672
lwrist -0.807828
lhand -4.64184 -23.0653
lfingers 7.12502
lthumb 21.1375 5.80246
rfemur 0 0 0
rtibia 0
rfoot 0 0
rtoes 0
lfemur 4.10986 2.82786 -15.8013
ltibia 18.1686
lfoot -28.3252 20.32
ltoes -52.3394
815
root -0.433013 18.627 6.07242 -0.528404 -21.171 -0.792022
lowerback 5.55933 -4.87644 -0.213314
upperback -1.67502 -6.47892 1.06038
thorax -4.69346 -3.19011 1.82522
lowerneck 9.8197 -23.5048 -16.898
upperneck -1.28522 -33.9315 21.9597
head 4.69112 -17.3288 6.73229
rclavicle 3.18428e-014 -5.36719e-015
rhumerus 13.444 14.0147 -70.0819
rradius 88.5223
rwrist -4.64647
rhand -23.7883 -40.4877
rfingers 7.12502
rthumb 2.68185 -70.4505
lclavicle 3.18428e-014 -5.36719e-015
lhumerus -61.872 -6.92943 94.6667
lradius 68.4142
lwrist -0.853165
lhand -4.62402 -22.9553
lfingers 7.12502
lthumb 21.1546 5.91059
rfemur 0 0 0
rtibia 0
rfoot 0 0
rtoes 0
lfemur 4.1169 2.80856 -15.8857
ltibia 18.1695
lfoot -28.3051 20.3518
ltoes -52.4384
816
root -0.432456 18.6264 6.07651 -0.536327 -21.1189 -0.731616
lowerback 5.54149 -4.88242 -0.271883
upperback -1.70139 -6.49147 1.05759
thorax -4.70437 -3.19452 1.85531
lowerneck 9.87804 -23.4904 -16.9289
upperneck -1.32039 -33.9159 21.9647
head 4.67481 -17.3256 6.74853
rclavicle -1.92697e-014 -1.59028e-015
rhumerus 13.3426 13.9768 -70.1261
rradius 88.5679
rwrist -4.5263
rhand -23.7164 -40.4882
rfingers 7.12502
rthumb 2.75121 -70.4502
lclavicle -1.92697e-014 -1.59028e-015
lhumerus -61.9016 -6.91158 94.7058
lradius 68.3756
lwrist -0.849466
lhand -4.84978 -22.7776
lfingers 7.12502
lthumb 20.9377 6.11239
rfemur 0 0 0
rtibia 0
rfoot 0 0
rtoes 0
lfemur 4.10996 2.8332 -15.9415
ltibia 18.1603
lfoot -28.2644 20.2854
ltoes -52.4913
817
root -0.432393 18.6255 6.0796 -0.53627 -21.0902 -0.737414
lowerback 5.51994 -4.88266 -0.260903
upperback -1.70712 -6.49125 1.05286
thorax -4.69995 -3.19489 1.8427
lowerneck 9.87454 -23.493 -16.9026
upperneck -1.32378 -33.9134 21.944
head 4.66554 -17.3242 6.74244
rclavicle -5.25226e-014 4.77083e-015
rhumerus 13.2735 13.9014 -70.2386
rradius 88.6014
rwrist -4.45875
rhand -23.6422 -40.4702
rfingers 7.12502
rthumb 2.82292 -70.4313
lclavicle -5.25226e-014 4.77083e-015
lhumerus -61.9474 -6.94619 94.7377
lradius 68.3855
lwrist -0.79886
lhand -4.9915 -22.6851
lfingers 7.12502
lthumb 20.8016 6.21987
rfemur 0 0 0
rtibia 0
rfoot 0 0
rtoes 0
lfemur 4.1219 2.90703 -15.9137
ltibia 18.1467
lfoot -28.2111 20.2172
ltoes -52.5547
818
root -0.432753 18.6248 6.08235 -0.544538 -21.0918 -0.769705
lowerback 5.50568 -4.87875 -0.233978
upperback -1.703 -6.48384 1.05829
thorax -4.69017 -3.19209 1.83126
lowerneck 9.87348 -23.4767 -16.9084
upperneck -1.32725 -33.8919 21.9517
head 4.6632 -17.3139 6.74911
rclavicle -9.46091e-014 4.77083e-015
rhumerus 13.2602 13.8343 -70.3375
rradius 88.603
rwrist -4.48932
rhand -23.6326 -40.4561
rfingers 7.12502
rthumb 2.83218 -70.4171
lclavicle -9.46091e-014 4.77083e-015
lhumerus -61.9446 -6.89593 94.7385
lradius 68.35
lwrist -0.803868
lhand -4.96819 -22.6477
lfingers 7.12502
lthumb 20.824 6.25476
rfemur 0 0 0
rtibia 0
rfoot 0 0
rtoes 0
lfemur 4.15584 2.91239 -15.8783
ltibia 18.1414
lfoot -28.2314 20.1936
ltoes -52.5086
819
root -0.43346 18.6247 6.08482 -0.536835 -21.0908 -0.791
lowerback 5.49967 -4.87418 -0.231035
upperback -1.7189 -6.47676 1.07701
thorax -4.70171 -3.18824 1.84859
lowerneck 9.89034 -23.4556 -16.9532
upperneck -1.32632 -33.8715 21.9641
head 4.66694 -17.3048 6.76108
rclavicle -1.28775e-014 6.55989e-015
rhumerus 13.2328 13.8055 -70.3603
rradius 88.6115
rwrist -4.54897
rhand -23.6148 -40.465
rfingers 7.12502
rthumb 2.84942 -70.4257
lclavicle -1.28775e-014 6.55989e-015
lhumerus -61.9436 -6.85054 94.7643
lradius 68.3072
lwrist -0.81857
lhand -4.9748 -22.6691
lfingers 7.12502
lthumb 20.8176 6.23406
rfemur 0 0 0
rtibia 0
rfoot 0 0
rtoes 0
lfemur 4.15922 3.01406 -15.8304
ltibia 18.1441
lfoot -28.1826 20.1001
ltoes -52.48
